<mxfile host="65bd71144e">
    <diagram id="7W33uEh9ZzW-GppHaLwA" name="Page-1">
        <mxGraphModel dx="1086" dy="664" grid="1" gridSize="10" guides="1" tooltips="1" connect="1" arrows="1" fold="1" page="1" pageScale="1" pageWidth="850" pageHeight="1100" math="0" shadow="0">
            <root>
                <mxCell id="0"/>
                <mxCell id="1" parent="0"/>
                <mxCell id="43" value="ESP32/ESP32-C/S" style="rounded=0;whiteSpace=wrap;html=1;align=left;verticalAlign=top;fillColor=#CCCCFF;fontColor=#000000;" parent="1" vertex="1">
                    <mxGeometry x="100" y="40" width="150" height="138" as="geometry"/>
                </mxCell>
                <mxCell id="44" value="&lt;font style=&quot;font-size: 12px;&quot;&gt;&lt;b&gt;esp-wifi&lt;/b&gt;&lt;br&gt;&lt;br&gt;esp_wifi_init();&lt;br&gt;esp_wifi_connect();&lt;br&gt;&lt;b&gt;...&lt;/b&gt;&lt;br&gt;&lt;/font&gt;" style="rounded=0;whiteSpace=wrap;html=1;fillColor=#FFFFCC;fontColor=#000000;align=left;verticalAlign=top;" parent="1" vertex="1">
                    <mxGeometry x="120" y="65" width="110" height="88" as="geometry"/>
                </mxCell>
                <mxCell id="45" value="" style="shape=umlActor;verticalLabelPosition=bottom;verticalAlign=top;html=1;outlineConnect=0;fontSize=12;fontColor=#000000;fillColor=none;strokeWidth=2;strokeColor=#FF99FF;" parent="1" vertex="1">
                    <mxGeometry x="20" y="90" width="30" height="60" as="geometry"/>
                </mxCell>
                <mxCell id="46" value="" style="sketch=0;pointerEvents=1;shadow=0;dashed=0;html=1;strokeColor=none;fillColor=#FF99FF;aspect=fixed;labelPosition=center;verticalLabelPosition=bottom;verticalAlign=top;align=center;outlineConnect=0;shape=mxgraph.vvd.wi_fi;strokeWidth=2;" parent="1" vertex="1">
                    <mxGeometry x="290" y="40" width="50" height="50" as="geometry"/>
                </mxCell>
                <mxCell id="60" value="&lt;div style=&quot;font-family: Consolas, &amp;quot;Courier New&amp;quot;, monospace; font-size: 14px; line-height: 19px;&quot;&gt;&lt;font color=&quot;#ff33ff&quot;&gt;&lt;b&gt;Native&lt;/b&gt;&lt;/font&gt;&lt;/div&gt;&lt;div style=&quot;font-family: Consolas, &amp;quot;Courier New&amp;quot;, monospace; font-size: 14px; line-height: 19px;&quot;&gt;&lt;font color=&quot;#ff33ff&quot;&gt;&lt;b&gt;Wifi&lt;/b&gt;&lt;/font&gt;&lt;/div&gt;" style="text;html=1;strokeColor=none;fillColor=none;align=center;verticalAlign=middle;whiteSpace=wrap;rounded=0;strokeWidth=2;fontSize=12;fontColor=#000000;" parent="1" vertex="1">
                    <mxGeometry x="340" y="45" width="50" height="45" as="geometry"/>
                </mxCell>
            </root>
        </mxGraphModel>
    </diagram>
</mxfile>
